<svg width="120" height="145" viewBox="0 0 120 145" fill="none" xmlns="http://www.w3.org/2000/svg">
<g filter="url(#filter0_dii_1104_24)">
<path d="M20.1104 100.922C20.1104 89.8873 29.0558 80.9419 40.0906 80.9419H60.0708V100.922C60.0708 111.957 51.1253 120.902 40.0906 120.902V120.902C29.0558 120.902 20.1104 111.957 20.1104 100.922V100.922Z" fill="url(#paint0_linear_1104_24)"/>
</g>
<path opacity="0.4" d="M41.3398 89.2874H37.6661C37.0008 89.2874 34.9605 90.1781 32.1219 93.7412C29.5048 97.0261 29.7445 100.982 30.2806 102.935C30.356 103.21 30.6118 103.387 30.8965 103.387H36.0644C36.158 103.387 36.2213 103.292 36.185 103.205L36.0744 102.943C36.0678 102.927 36.0597 102.912 36.0507 102.897C33.9203 99.4392 38.3984 93.8 41.815 90.5126C42.2654 90.0793 41.9649 89.2874 41.3398 89.2874Z" fill="url(#paint1_linear_1104_24)"/>
<path opacity="0.35" d="M52.3154 85.4131C51.9967 88.7021 52.0418 89.9905 49.7288 92.2146L47.3807 91.1092C49.6335 89.0523 50.7757 88.6196 50.7594 84.6806L52.3154 85.4131Z" fill="url(#paint2_linear_1104_24)"/>
<g filter="url(#filter1_di_1104_24)">
<path d="M60.0706 60.9616C60.0706 49.9269 69.016 40.9814 80.0508 40.9814V40.9814C91.0855 40.9814 100.031 49.9269 100.031 60.9616V60.9616C100.031 71.9964 91.0855 80.9418 80.0508 80.9418V80.9418C69.016 80.9418 60.0706 71.9964 60.0706 60.9616V60.9616Z" fill="url(#paint3_linear_1104_24)"/>
</g>
<path opacity="0.4" d="M74.9363 51.9348C74.6537 51.8491 74.3466 51.9595 74.1828 52.2053C71.0111 56.9639 71.4942 57.3296 71.1836 62.7976C71.1659 63.1093 71.3628 63.3942 71.6615 63.4848L74.1926 64.2524C74.6226 64.3828 75.0571 64.0595 75.0566 63.6102C75.051 58.6285 74.7102 58.0731 77.8039 53.746C78.0736 53.3688 77.8985 52.8331 77.4548 52.6986L74.9363 51.9348Z" fill="url(#paint4_linear_1104_24)"/>
<path opacity="0.4" d="M83.2281 51.5744C84.4629 49.9819 87.1737 47.7397 90.13 47.6671C90.2267 47.6647 90.3238 47.6862 90.4108 47.7284C93.6661 49.3066 94.5172 52.956 95.1235 55.1736C95.2397 55.5989 94.939 56.037 94.4991 56.0653L86.5191 56.5789C86.2433 56.5967 85.9842 56.4424 85.8656 56.1929C84.32 52.9403 84.3566 53.3966 83.296 52.3866C83.0691 52.1706 83.0362 51.822 83.2281 51.5744Z" fill="url(#paint5_linear_1104_24)"/>
<g filter="url(#filter2_di_1104_24)">
<path d="M60.0706 1.021H80.0508C91.0855 1.021 100.031 9.96644 100.031 21.0012V21.0012C100.031 32.036 91.0855 40.9814 80.0508 40.9814H60.0706V1.021Z" fill="url(#paint6_linear_1104_24)"/>
<path d="M60.0706 1.021H80.0508C91.0855 1.021 100.031 9.96644 100.031 21.0012V21.0012C100.031 32.036 91.0855 40.9814 80.0508 40.9814H60.0706V1.021Z" fill="url(#paint7_linear_1104_24)" fill-opacity="0.05"/>
</g>
<path opacity="0.3" d="M81.4725 40.9333L60.02 40.9982V31.0039H97.3557C93.0652 37.8855 86.3345 40.7929 81.4725 40.9333Z" fill="url(#paint8_linear_1104_24)"/>
<g opacity="0.3" filter="url(#filter3_b_1104_24)">
<path d="M89.232 5.69718C86.6253 5.72207 83.3326 8.8742 81.0026 11.1202C83.6824 10.6756 86.5957 14.2508 87.7174 16.094C91.4839 13.8389 95.1806 14.5705 97.3994 14.8816C95.8753 11.5854 91.8387 5.67229 89.232 5.69718Z" fill="url(#paint9_linear_1104_24)"/>
</g>
<g filter="url(#filter4_ii_1104_24)">
<path d="M20.1104 21.0012C20.1104 9.96644 29.0558 1.021 40.0906 1.021H60.0708C60.0708 17.7791 60.0708 26.1245 60.0708 40.9814H40.0905C29.0558 40.9814 20.1104 32.036 20.1104 21.0012V21.0012Z" fill="url(#paint10_linear_1104_24)"/>
</g>
<path opacity="0.3" d="M38.6783 40.9391L60.1211 40.9983V31.8789H34.9116C29.7725 31.8789 27.3183 37.4399 32.0555 39.4323C34.3792 40.4096 36.6857 40.8865 38.6783 40.9391Z" fill="url(#paint11_linear_1104_24)"/>
<path opacity="0.3" d="M30.369 25.2205C30.1265 25.1299 29.9571 24.9052 29.934 24.6473C29.1992 16.4702 28.851 12.1556 33.9334 6.44259C34.1026 6.25241 34.3687 6.17553 34.6135 6.24497L38.6693 7.39503C39.1597 7.53409 39.3219 8.14881 38.9731 8.5205C34.4181 13.3743 32.9532 16.8144 34.5616 25.6799C34.6559 26.1991 34.1507 26.6336 33.6563 26.4489L30.369 25.2205Z" fill="url(#paint12_linear_1104_24)"/>
<g filter="url(#filter5_ddi_1104_24)">
<path d="M20.1104 60.9448C20.1104 49.91 29.0558 40.9646 40.0906 40.9646H60.0707C60.9289 57.6048 60.9289 66.3542 60.0707 80.925H40.0905C29.0558 80.925 20.1104 71.9796 20.1104 60.9448V60.9448Z" fill="url(#paint13_linear_1104_24)"/>
</g>
<path opacity="0.3" d="M38.6783 80.849L60.1211 80.9082V71.7888H34.9116C29.7725 71.7888 27.3183 77.3498 32.0555 79.3422C34.3792 80.3195 36.6857 80.7965 38.6783 80.849Z" fill="url(#paint14_linear_1104_24)"/>
<path opacity="0.4" d="M33.0431 48.2765C32.8868 48.2217 32.7104 48.2788 32.6118 48.4118C28.9686 53.3317 28.901 53.5698 28.6427 59.3881C28.6353 59.5547 28.7378 59.7108 28.8951 59.7659L31.778 60.7754C32.0376 60.8663 32.3042 60.6579 32.2795 60.3839C31.775 54.7932 31.9358 54.4216 36.0925 49.9051C36.2766 49.7051 36.197 49.3809 35.9405 49.2911L33.0431 48.2765Z" fill="url(#paint15_linear_1104_24)"/>
<defs>
<filter id="filter0_dii_1104_24" x="4.70858" y="73.8334" width="70.764" height="70.764" filterUnits="userSpaceOnUse" color-interpolation-filters="sRGB">
<feFlood flood-opacity="0" result="BackgroundImageFix"/>
<feColorMatrix in="SourceAlpha" type="matrix" values="0 0 0 0 0 0 0 0 0 0 0 0 0 0 0 0 0 0 127 0" result="hardAlpha"/>
<feOffset dy="8.29326"/>
<feGaussianBlur stdDeviation="7.70088"/>
<feColorMatrix type="matrix" values="0 0 0 0 0 0 0 0 0 0 0 0 0 0 0 0 0 0 0.25 0"/>
<feBlend mode="normal" in2="BackgroundImageFix" result="effect1_dropShadow_1104_24"/>
<feBlend mode="normal" in="SourceGraphic" in2="effect1_dropShadow_1104_24" result="shape"/>
<feColorMatrix in="SourceAlpha" type="matrix" values="0 0 0 0 0 0 0 0 0 0 0 0 0 0 0 0 0 0 127 0" result="hardAlpha"/>
<feOffset dx="2.01905" dy="-3.36509"/>
<feGaussianBlur stdDeviation="2.52382"/>
<feComposite in2="hardAlpha" operator="arithmetic" k2="-1" k3="1"/>
<feColorMatrix type="matrix" values="0 0 0 0 0.054902 0 0 0 0 0.717647 0 0 0 0 0.560784 0 0 0 1 0"/>
<feBlend mode="normal" in2="shape" result="effect2_innerShadow_1104_24"/>
<feColorMatrix in="SourceAlpha" type="matrix" values="0 0 0 0 0 0 0 0 0 0 0 0 0 0 0 0 0 0 127 0" result="hardAlpha"/>
<feOffset dx="1.11048" dy="1.14413"/>
<feGaussianBlur stdDeviation="1.9181"/>
<feComposite in2="hardAlpha" operator="arithmetic" k2="-1" k3="1"/>
<feColorMatrix type="matrix" values="0 0 0 0 0.0567361 0 0 0 0 0.716667 0 0 0 0 0.55954 0 0 0 1 0"/>
<feBlend mode="normal" in2="effect2_innerShadow_1104_24" result="effect3_innerShadow_1104_24"/>
</filter>
<filter id="filter1_di_1104_24" x="57.715" y="39.2989" width="44.6379" height="43.3255" filterUnits="userSpaceOnUse" color-interpolation-filters="sRGB">
<feFlood flood-opacity="0" result="BackgroundImageFix"/>
<feColorMatrix in="SourceAlpha" type="matrix" values="0 0 0 0 0 0 0 0 0 0 0 0 0 0 0 0 0 0 127 0" result="hardAlpha"/>
<feOffset dx="-0.673017"/>
<feGaussianBlur stdDeviation="0.841272"/>
<feColorMatrix type="matrix" values="0 0 0 0 0.4 0 0 0 0 0.211765 0 0 0 0 0.34902 0 0 0 0.55 0"/>
<feBlend mode="normal" in2="BackgroundImageFix" result="effect1_dropShadow_1104_24"/>
<feBlend mode="normal" in="SourceGraphic" in2="effect1_dropShadow_1104_24" result="shape"/>
<feColorMatrix in="SourceAlpha" type="matrix" values="0 0 0 0 0 0 0 0 0 0 0 0 0 0 0 0 0 0 127 0" result="hardAlpha"/>
<feOffset dx="2.32191" dy="-1.00953"/>
<feGaussianBlur stdDeviation="1.8508"/>
<feComposite in2="hardAlpha" operator="arithmetic" k2="-1" k3="1"/>
<feColorMatrix type="matrix" values="0 0 0 0 0.027451 0 0 0 0 0.333333 0 0 0 0 0.972549 0 0 0 0.7 0"/>
<feBlend mode="normal" in2="shape" result="effect2_innerShadow_1104_24"/>
</filter>
<filter id="filter2_di_1104_24" x="58.2198" y="0.565027" width="43.3255" height="43.3255" filterUnits="userSpaceOnUse" color-interpolation-filters="sRGB">
<feFlood flood-opacity="0" result="BackgroundImageFix"/>
<feColorMatrix in="SourceAlpha" type="matrix" values="0 0 0 0 0 0 0 0 0 0 0 0 0 0 0 0 0 0 127 0" result="hardAlpha"/>
<feOffset dx="-0.168254" dy="1.22657"/>
<feGaussianBlur stdDeviation="0.841272"/>
<feColorMatrix type="matrix" values="0 0 0 0 0.4 0 0 0 0 0.211765 0 0 0 0 0.34902 0 0 0 0.55 0"/>
<feBlend mode="normal" in2="BackgroundImageFix" result="effect1_dropShadow_1104_24"/>
<feBlend mode="normal" in="SourceGraphic" in2="effect1_dropShadow_1104_24" result="shape"/>
<feColorMatrix in="SourceAlpha" type="matrix" values="0 0 0 0 0 0 0 0 0 0 0 0 0 0 0 0 0 0 127 0" result="hardAlpha"/>
<feOffset dx="-1.34603" dy="1.34603"/>
<feGaussianBlur stdDeviation="1.51429"/>
<feComposite in2="hardAlpha" operator="arithmetic" k2="-1" k3="1"/>
<feColorMatrix type="matrix" values="0 0 0 0 1 0 0 0 0 0.8 0 0 0 0 0.811765 0 0 0 1 0"/>
<feBlend mode="normal" in2="shape" result="effect2_innerShadow_1104_24"/>
</filter>
<filter id="filter3_b_1104_24" x="78.9836" y="3.67797" width="20.4348" height="14.4351" filterUnits="userSpaceOnUse" color-interpolation-filters="sRGB">
<feFlood flood-opacity="0" result="BackgroundImageFix"/>
<feGaussianBlur in="BackgroundImageFix" stdDeviation="1.00953"/>
<feComposite in2="SourceAlpha" operator="in" result="effect1_backgroundBlur_1104_24"/>
<feBlend mode="normal" in="SourceGraphic" in2="effect1_backgroundBlur_1104_24" result="shape"/>
</filter>
<filter id="filter4_ii_1104_24" x="20.1104" y="1.021" width="43.3255" height="40.0951" filterUnits="userSpaceOnUse" color-interpolation-filters="sRGB">
<feFlood flood-opacity="0" result="BackgroundImageFix"/>
<feBlend mode="normal" in="SourceGraphic" in2="BackgroundImageFix" result="shape"/>
<feColorMatrix in="SourceAlpha" type="matrix" values="0 0 0 0 0 0 0 0 0 0 0 0 0 0 0 0 0 0 127 0" result="hardAlpha"/>
<feOffset dx="3.36509" dy="0.134603"/>
<feGaussianBlur stdDeviation="2.25461"/>
<feComposite in2="hardAlpha" operator="arithmetic" k2="-1" k3="1"/>
<feColorMatrix type="matrix" values="0 0 0 0 0.954167 0 0 0 0 0.440652 0 0 0 0 0.151076 0 0 0 1 0"/>
<feBlend mode="normal" in2="shape" result="effect1_innerShadow_1104_24"/>
<feColorMatrix in="SourceAlpha" type="matrix" values="0 0 0 0 0 0 0 0 0 0 0 0 0 0 0 0 0 0 127 0" result="hardAlpha"/>
<feOffset dy="1.68254"/>
<feGaussianBlur stdDeviation="0.0673017"/>
<feComposite in2="hardAlpha" operator="arithmetic" k2="-1" k3="1"/>
<feColorMatrix type="matrix" values="0 0 0 0 1 0 0 0 0 0.623446 0 0 0 0 0.225 0 0 0 0.5 0"/>
<feBlend mode="normal" in2="effect1_innerShadow_1104_24" result="effect2_innerShadow_1104_24"/>
</filter>
<filter id="filter5_ddi_1104_24" x="17.7548" y="37.936" width="45.3151" height="45.8981" filterUnits="userSpaceOnUse" color-interpolation-filters="sRGB">
<feFlood flood-opacity="0" result="BackgroundImageFix"/>
<feColorMatrix in="SourceAlpha" type="matrix" values="0 0 0 0 0 0 0 0 0 0 0 0 0 0 0 0 0 0 127 0" result="hardAlpha"/>
<feOffset dy="-0.673017"/>
<feGaussianBlur stdDeviation="1.17778"/>
<feColorMatrix type="matrix" values="0 0 0 0 0 0 0 0 0 0 0 0 0 0 0 0 0 0 0.25 0"/>
<feBlend mode="normal" in2="BackgroundImageFix" result="effect1_dropShadow_1104_24"/>
<feColorMatrix in="SourceAlpha" type="matrix" values="0 0 0 0 0 0 0 0 0 0 0 0 0 0 0 0 0 0 127 0" result="hardAlpha"/>
<feOffset dy="1.22657"/>
<feGaussianBlur stdDeviation="0.841272"/>
<feColorMatrix type="matrix" values="0 0 0 0 0.4 0 0 0 0 0.211765 0 0 0 0 0.34902 0 0 0 0.55 0"/>
<feBlend mode="normal" in2="effect1_dropShadow_1104_24" result="effect2_dropShadow_1104_24"/>
<feBlend mode="normal" in="SourceGraphic" in2="effect2_dropShadow_1104_24" result="shape"/>
<feColorMatrix in="SourceAlpha" type="matrix" values="0 0 0 0 0 0 0 0 0 0 0 0 0 0 0 0 0 0 127 0" result="hardAlpha"/>
<feOffset dx="1.64889" dy="-0.673017"/>
<feGaussianBlur stdDeviation="2.35556"/>
<feComposite in2="hardAlpha" operator="arithmetic" k2="-1" k3="1"/>
<feColorMatrix type="matrix" values="0 0 0 0 0.329883 0 0 0 0 0.027451 0 0 0 0 0.972549 0 0 0 0.5 0"/>
<feBlend mode="normal" in2="shape" result="effect3_innerShadow_1104_24"/>
</filter>
<linearGradient id="paint0_linear_1104_24" x1="54.614" y1="80.9419" x2="26.8299" y2="116.389" gradientUnits="userSpaceOnUse">
<stop stop-color="#3CE4B8"/>
<stop offset="0.453874" stop-color="#0CE7A2"/>
<stop offset="1" stop-color="#15CA82"/>
</linearGradient>
<linearGradient id="paint1_linear_1104_24" x1="39.409" y1="89.9772" x2="35.027" y2="103.893" gradientUnits="userSpaceOnUse">
<stop stop-color="white" stop-opacity="0.8"/>
<stop offset="0.0001" stop-color="white" stop-opacity="0.8"/>
<stop offset="1" stop-color="white" stop-opacity="0.4"/>
</linearGradient>
<linearGradient id="paint2_linear_1104_24" x1="47.6661" y1="93.1334" x2="47.0383" y2="84.9512" gradientUnits="userSpaceOnUse">
<stop stop-color="white"/>
<stop offset="1" stop-color="white" stop-opacity="0.8"/>
</linearGradient>
<linearGradient id="paint3_linear_1104_24" x1="92.5436" y1="78.7545" x2="69.9976" y2="43.7913" gradientUnits="userSpaceOnUse">
<stop stop-color="#10E0FC"/>
<stop offset="0.520833" stop-color="#40F2FF"/>
<stop offset="1" stop-color="#10E0FC"/>
</linearGradient>
<linearGradient id="paint4_linear_1104_24" x1="71.6683" y1="66.0998" x2="78.7389" y2="54.159" gradientUnits="userSpaceOnUse">
<stop stop-color="white" stop-opacity="0.3"/>
<stop offset="1" stop-color="white"/>
</linearGradient>
<linearGradient id="paint5_linear_1104_24" x1="94.7983" y1="48.536" x2="83.49" y2="47.1852" gradientUnits="userSpaceOnUse">
<stop stop-color="white"/>
<stop offset="1" stop-color="white" stop-opacity="0.3"/>
</linearGradient>
<linearGradient id="paint6_linear_1104_24" x1="80.0424" y1="1.021" x2="80.0508" y2="40.9814" gradientUnits="userSpaceOnUse">
<stop stop-color="#FFC6C8"/>
<stop offset="0.0001" stop-color="#FFB9BC"/>
<stop offset="0.508975" stop-color="#FFAAAD"/>
<stop offset="1" stop-color="#FF98A4"/>
</linearGradient>
<linearGradient id="paint7_linear_1104_24" x1="78.2769" y1="1.021" x2="74.7835" y2="40.696" gradientUnits="userSpaceOnUse">
<stop stop-color="#BE6B9B" stop-opacity="0"/>
<stop offset="1" stop-color="#BE6B9B"/>
</linearGradient>
<linearGradient id="paint8_linear_1104_24" x1="77.0305" y1="31.0039" x2="76.795" y2="40.9982" gradientUnits="userSpaceOnUse">
<stop stop-color="#BE6B9B" stop-opacity="0"/>
<stop offset="1" stop-color="#BE6B9B"/>
</linearGradient>
<linearGradient id="paint9_linear_1104_24" x1="95.1694" y1="9.29059" x2="81.6033" y2="7.16718" gradientUnits="userSpaceOnUse">
<stop stop-color="white"/>
<stop offset="1" stop-color="white"/>
</linearGradient>
<linearGradient id="paint10_linear_1104_24" x1="45.4999" y1="1.02096" x2="44.8782" y2="40.9885" gradientUnits="userSpaceOnUse">
<stop stop-color="#FE8906"/>
<stop offset="0.418177" stop-color="#FE8103"/>
<stop offset="0.760417" stop-color="#FB6D0E"/>
<stop offset="1" stop-color="#E03A1A"/>
</linearGradient>
<linearGradient id="paint11_linear_1104_24" x1="43.1182" y1="31.8789" x2="43.3145" y2="40.9991" gradientUnits="userSpaceOnUse">
<stop stop-color="#BD2D17" stop-opacity="0"/>
<stop offset="1" stop-color="#D5321A"/>
</linearGradient>
<linearGradient id="paint12_linear_1104_24" x1="38.8428" y1="8.81133" x2="38.8428" y2="27.4034" gradientUnits="userSpaceOnUse">
<stop stop-color="white"/>
<stop offset="1" stop-color="white" stop-opacity="0.1"/>
</linearGradient>
<linearGradient id="paint13_linear_1104_24" x1="40.4123" y1="40.9646" x2="40.4123" y2="80.925" gradientUnits="userSpaceOnUse">
<stop stop-color="#BF6FFB"/>
<stop offset="0.505208" stop-color="#B576FD"/>
<stop offset="1" stop-color="#9865F6"/>
</linearGradient>
<linearGradient id="paint14_linear_1104_24" x1="43.3537" y1="71.7888" x2="43.3145" y2="80.908" gradientUnits="userSpaceOnUse">
<stop stop-color="#7D5BEF" stop-opacity="0"/>
<stop offset="1" stop-color="#0B0B38"/>
</linearGradient>
<linearGradient id="paint15_linear_1104_24" x1="30.1529" y1="60.1792" x2="36.2459" y2="49.0294" gradientUnits="userSpaceOnUse">
<stop stop-color="white" stop-opacity="0.1"/>
<stop offset="1" stop-color="white" stop-opacity="0.6"/>
</linearGradient>
</defs>
</svg>
