<svg width="48" height="48" viewBox="0 0 48 48" fill="none" xmlns="http://www.w3.org/2000/svg">
<path d="M40.896 34.2991C40.1056 34.2991 39.4328 34.0214 38.8774 33.466C38.3434 32.9106 38.0764 32.2378 38.0764 31.4474C38.0764 30.6571 38.3434 29.9842 38.8774 29.4288C39.4328 28.8735 40.1056 28.5958 40.896 28.5958C41.6863 28.5958 42.3592 28.8735 42.9146 29.4288C43.47 29.9842 43.7476 30.6571 43.7476 31.4474C43.7476 32.2378 43.47 32.9106 42.9146 33.466C42.3592 34.0214 41.6863 34.2991 40.896 34.2991Z" fill="#FF7700"/>
<path d="M29.5488 33.9146V7H33.9064V33.9146H29.5488Z" fill="#FF7700"/>
<path d="M19.1875 41.6045V31.0309H19.0594C18.4826 32.0776 17.6602 32.8893 16.5922 33.4661C15.5242 34.0214 14.2425 34.2991 12.7472 34.2991C10.9316 34.2991 9.36156 33.8933 8.03719 33.0816C6.73418 32.2699 5.73022 31.1164 5.02532 29.6211C4.34177 28.1045 4 26.3315 4 24.3023C4 22.273 4.35245 20.5107 5.05736 19.0155C5.76227 17.5202 6.79826 16.3667 8.16536 15.555C9.53245 14.722 11.1879 14.3054 13.1317 14.3054C14.7124 14.3054 16.0582 14.6045 17.1689 15.2026C18.3011 15.7793 19.1982 16.6231 19.8604 17.7338H21.2061V14.6899H25.7239V19.0796H23.5451V41.6045H19.1875ZM13.8687 30.5503C15.4921 30.5503 16.7844 30.091 17.7457 29.1725C18.7069 28.254 19.1875 27.0151 19.1875 25.4558V23.1488C19.1875 21.5895 18.7069 20.3505 17.7457 19.432C16.7844 18.5135 15.4921 18.0542 13.8687 18.0542C12.0957 18.0542 10.7287 18.6096 9.76742 19.7204C8.82754 20.8311 8.3576 22.3584 8.3576 24.3023C8.3576 26.2461 8.82754 27.7734 9.76742 28.8842C10.7287 29.9949 12.0957 30.5503 13.8687 30.5503Z" fill="black"/>
</svg>
